<svg xmlns="http://www.w3.org/2000/svg" viewBox="0 0 6.42 9.32"><defs><style>.cls-1{fill:#e0e0e0;}</style></defs><g id="Layer_2" data-name="Layer 2"><g id="Layer_1-2" data-name="Layer 1"><path class="cls-1" d="M2.88,9.32V8.66C1.06,8.57,0,7.71,0,6.34H1.86a1,1,0,0,0,1,.9V5.51l-.64-.14C.86,5.07.15,4.3.15,3.12c0-1.39,1-2.26,2.73-2.39V0h.77V.74c1.6.15,2.61,1.05,2.62,2.33H4.47a1,1,0,0,0-.82-.87V3.87L4.29,4c1.41.27,2.13,1,2.13,2.22,0,1.42-1,2.29-2.77,2.44v.67Zm0-5.61V2.19A.8.8,0,0,0,2,2.94C2,3.33,2.33,3.6,2.88,3.71Zm.77,1.93v1.6c.59,0,.94-.35.94-.81S4.28,5.76,3.65,5.64Z"/></g></g></svg>