<?xml version="1.0" encoding="utf-8"?>
<!-- Generator: Adobe Illustrator 25.0.1, SVG Export Plug-In . SVG Version: 6.00 Build 0)  -->
<svg version="1.1" id="Layer_1" xmlns="http://www.w3.org/2000/svg" xmlns:xlink="http://www.w3.org/1999/xlink" x="0px" y="0px"
	 viewBox="0 0 17.7 13.9" style="enable-background:new 0 0 17.7 13.9;" xml:space="preserve">
<style type="text/css">
	.st0{fill:#E0E0E0;}
	.st1{enable-background:new    ;}
	.st2{fill:#FFFFFF;}
</style>
<g id="Layer_2_1_">
	<g id="Layer_1-2">
		<polygon class="st0" points="0,13.9 17.7,0 17.7,13.9 		"/>
		<g class="st1">
			<path class="st2" d="M10.5,11.4v-1.1H9.4v1.1H8.7V8.6h0.7v1.1h1.1V8.6h0.7v2.8H10.5z"/>
			<path class="st2" d="M12.4,11.4h-0.7V8.6h1.2c0.7,0,1.1,0.3,1.1,0.9c0,0.3-0.2,0.7-0.5,0.8l0.6,1.1h-0.8l-0.5-1h-0.4V11.4z
				 M12.4,9.9h0.4c0.3,0,0.4-0.2,0.4-0.4c0-0.2-0.2-0.4-0.4-0.4h-0.4V9.9z"/>
			<path class="st2" d="M14.9,10.6c0,0.2,0.2,0.3,0.5,0.3c0.3,0,0.5-0.1,0.5-0.3c0-0.2-0.1-0.2-0.4-0.3l-0.4-0.1
				c-0.5-0.1-0.8-0.4-0.8-0.8c0-0.5,0.5-0.9,1.1-0.9c0.7,0,1.1,0.3,1.1,0.9h-0.7c0-0.2-0.2-0.3-0.5-0.3c-0.2,0-0.4,0.1-0.4,0.3
				c0,0.2,0.1,0.2,0.4,0.3l0.4,0.1c0.6,0.1,0.8,0.4,0.8,0.8c0,0.6-0.5,0.9-1.2,0.9c-0.7,0-1.2-0.3-1.2-0.9H14.9z"/>
		</g>
	</g>
</g>
</svg>
